<?xml version="1.0" encoding="UTF-8" standalone="no"?>
<!-- Created with Pixodesk SVG (https://pixodesk.com) -->
<svg xmlns="http://www.w3.org/2000/svg" viewBox="0 0 1264 932" text-rendering="geometricPrecision" shape-rendering="geometricPrecision" fill="#1de447">
  <g data-px-label="Car" transform="translate(899.0399, 671.4912)translate(-899.0399, -671.4912)">
    <g data-px-label="lamp" transform="translate(900.5135, 729.6329)translate(-900.5135, -729.6329)">
      <use transform="translate(699.3183, 730.8396)translate(-61.1057, -30.3364)" href="#_px_svg_203ilhrp"/>
      <g id="_px_svg_203ilhro" transform="translate(1040.6031,698.0898)" data-px-wrapper="translate">
        <rect id="_px_svg_203ilhrp" fill="#ffe400" stroke="#003a73" transform="translate(61.1057, 30.3364)translate(-61.1057, -30.3364)" width="122.2115" height="60.6729"/>
      </g>
    </g>
    <path data-px-label="car" fill="#1d2de4" fill-rule="evenodd" stroke="none" d="M737.607,453.873C741.1559,452.1251,747.309,449.8969,751.28,448.921C758.0129,447.2671,767.9991,447.1419,899.303,447.074C1025.48,447.0081,1040.853,447.1681,1047.303,448.616C1051.2609,449.5039,1058.1371,451.956,1062.582,454.064C1067.0267,456.172,1073.456,459.9951,1076.869,462.56C1080.281,465.1258,1085.078,469.686,1087.529,472.695C1089.98,475.7027,1098.223,488.591,1105.848,501.333C1113.472,514.075,1126.806,536.65,1135.479,551.5C1144.152,566.35,1154.6001,584.0132,1158.698,590.75L1166.1489,603L1197.325,603.022C1225.3458,603.0419,1228.905,603.2291,1232.5,604.869C1234.7,605.873,1238.1882,608.4372,1240.25,610.568L1244,614.442L1244,626.993C1244,639.4149,1243.9699,639.5812,1241.052,643.121C1239.4303,645.0879,1235.0429,648.2911,1231.302,650.239C1227.5611,652.186,1219.775,655.6641,1214,657.967C1208.225,660.269,1203.1639,662.4781,1202.7539,662.873C1202.343,663.2688,1201.987,701.5971,1201.961,748.046C1201.936,794.4958,1201.5588,835.091,1201.124,838.259C1200.598,842.0878,1199.5658,844.833,1198.045,846.452C1196.7881,847.791,1193.5628,849.6762,1190.8789,850.641L1186,852.395L1185.946,867.948C1185.9032,880.134,1185.52,884.4692,1184.176,887.976C1182.6733,891.897,1181.853,892.678,1177.556,894.273C1173.0941,895.9298,1169.488,896.0668,1137.576,895.797C1109.2291,895.557,1102.088,895.2259,1100.35,894.072C1099.168,893.2872,1097.481,891.134,1096.6,889.288C1095.3352,886.6341,1095,882.5019,1095,869.525C1095,860.5011,1094.662,852.9109,1094.25,852.657C1093.838,852.404,1011.6,852.096,911.5,851.972C811.4,851.848,724.0239,851.804,717.331,851.874L705.162,852L704.831,869.75C704.535,885.623,704.2889,887.786,702.5,890.208C701.4,891.698,699.1499,893.4712,697.5,894.15C695.386,895.018,684.1218,895.497,659.35,895.769C628.631,896.1059,623.812,895.9539,621.117,894.561C619.4211,893.6841,617.3159,891.578,616.439,889.882C615.146,887.3811,614.8642,883.5348,614.952,869.546C615.032,856.6221,614.7379,852.0388,613.78,851.277C613.0762,850.7181,610.8869,849.7419,608.915,849.107C606.9431,848.473,604.0949,846.6638,602.585,845.089C601.0751,843.513,599.4308,840.486,598.9299,838.362C598.42,836.1931,598.04,796.6289,598.064,748.104L598.1079,661.708L595.304,660.438C593.762,659.7392,589.575,657.8229,586,656.1799C582.425,654.5359,576.381,651.7898,572.569,650.077C568.757,648.3632,564.1789,645.8479,562.395,644.488C560.6111,643.1271,557.9378,639.4489,556.455,636.314C554.135,631.4101,553.8252,629.6937,554.23,624.023C554.5769,619.178,555.4051,616.3179,557.357,613.226C558.818,610.9131,561.6972,607.908,563.756,606.549C565.8149,605.189,569.8961,603.565,572.825,602.94C576.3708,602.182,586.5561,601.9591,603.325,602.272C617.171,602.5309,629.41,603.0512,630.523,603.428C632.3028,604.032,634.0991,601.4899,645.45,582.307C652.5469,570.313,663.817,551.2749,670.494,540C677.1719,528.7251,685.2,515.225,688.3339,510C691.4688,504.775,694.4511,499.8249,694.961,499C695.4709,498.1751,698.5011,493.0119,701.694,487.526C704.8869,482.0401,710.1321,474.7349,713.349,471.292C716.5659,467.8502,721.888,463.237,725.176,461.041C728.4628,458.8461,734.0572,455.62,737.607,453.873zM738.192,491.891C734.102,495.8928,730.1868,501.409,725.267,510.098C721.3851,516.955,714.9469,527.9501,710.961,534.532C706.9751,541.1139,702.736,548.3,701.54,550.5C700.3452,552.7,693.1319,565.0752,685.511,578C677.891,590.9248,670.3079,603.939,668.6609,606.919C666.6541,610.5509,665.667,613.74,665.667,616.59C665.667,618.9288,666.4232,621.9971,667.348,623.408C668.2729,624.82,670.935,626.9931,673.265,628.237L677.5,630.5L899.5,630.5L1121.5,630.5L1125.567,628.323C1127.804,627.126,1130.119,625.5509,1130.713,624.823C1131.306,624.0952,1132.2331,621.884,1132.772,619.909C1133.4639,617.3711,1133.3938,615.279,1132.535,612.78C1131.866,610.834,1125.7678,599.8498,1118.9849,588.371C1112.2011,576.8922,1103.1287,561.5838,1098.825,554.352C1094.521,547.1211,1091,540.9388,1091,540.615C1091,540.29,1087.1578,533.711,1082.462,525.995C1077.7662,518.2781,1073.6308,511.2028,1073.2739,510.273C1072.9171,509.3421,1070.526,505.4129,1067.961,501.54C1065.396,497.668,1061.1848,492.611,1058.604,490.301C1056.0231,487.9922,1051.568,484.9959,1048.705,483.642C1045.8422,482.289,1040.7348,480.466,1037.356,479.591C1031.8812,478.173,1016.725,478.0081,898.356,478.071C775.8451,478.1368,765.0328,478.276,759.498,479.862C756.197,480.8078,751.373,482.6091,748.778,483.865C746.183,485.1218,741.4198,488.733,738.192,491.891zM1100,706.509C1094.225,707.2808,1083.65,708.6401,1076.5,709.53C1069.35,710.4199,1060.575,711.8181,1057,712.6369C1053.425,713.4557,1049.45,714.8082,1048.166,715.641C1046.8832,716.4739,1045.228,718.602,1044.49,720.371C1043.751,722.139,1042.833,726.3551,1042.45,729.74C1042.022,733.5189,1042.241,738.478,1043.017,742.588C1043.8829,747.182,1045.0981,750.182,1046.89,752.152C1048.8199,754.2748,1050.994,755.2922,1055.2349,756.059C1058.8118,756.706,1077.8812,756.984,1105.913,756.798C1149.505,756.5091,1150.9392,756.438,1153.616,754.438C1155.134,753.3041,1157.3041,751.1358,1158.438,749.619C1160.2229,747.231,1160.544,745.1189,1160.8309,733.873C1161.0119,726.729,1160.643,717.8138,1160.01,714.062C1159.109,708.717,1158.2338,706.64,1155.971,704.472C1153.4393,702.0462,1152.183,701.6689,1145.791,701.4109C1141.7811,701.2502,1136.025,701.5201,1133,702.0119C1129.975,702.5028,1123.6748,703.401,1119,704.006C1114.3252,704.611,1105.775,705.737,1100,706.509zM639.004,729.218C639.0067,744.5839,639.2242,746.8541,640.956,749.696C642.028,751.4528,644.144,753.703,645.658,754.696C648.2168,756.373,651.8682,756.5,697.456,756.5L746.5,756.5L749.863,754.101C751.7129,752.7822,753.85,750.2089,754.613,748.383C755.4768,746.317,755.998,741.373,755.994,735.282C755.991,729.9021,755.542,723.892,754.996,721.926C754.4502,719.96,752.9649,717.376,751.696,716.184C750.399,714.9662,746.567,713.3907,742.944,712.589C739.4001,711.8031,730.6499,710.4368,723.5,709.551C716.3501,708.6661,705.325,707.287,699,706.486C692.675,705.684,682.325,704.3438,676,703.5069C669.675,702.671,660.438,701.989,655.473,701.993C648.7542,701.9979,645.8499,702.4172,644.117,703.631C642.8362,704.528,641.1608,706.763,640.394,708.599C639.3841,711.017,639.001,716.6931,639.004,729.218zM803.244,740.062C801.4781,741.868,799.3278,745.194,798.465,747.453C797.163,750.861,796.948,755.6432,797.198,775.53C797.4798,797.9439,797.6442,799.7931,799.722,804.0069C801.182,806.9698,803.2111,809.1971,805.644,810.5069C809.2618,812.4558,811.361,812.5,900.447,812.5C979.9719,812.5,991.775,812.3088,993.322,811C994.296,810.175,996.2081,808.375,997.569,807C998.9299,805.625,1000.5111,802.774,1001.083,800.664C1001.717,798.3262,1002.0018,786.965,1001.812,771.576L1001.5,746.323L998.773,742.391C997.273,740.2281,994.747,737.691,993.161,736.754C991.5741,735.817,987.8508,734.826,984.888,734.553C981.9251,734.279,951.1499,733.8948,916.5,733.7C881.8501,733.504,844.0498,733.623,832.5,733.964C820.9502,734.3049,810.3648,735.077,808.977,735.681C807.5902,736.2838,805.0098,738.255,803.244,740.062z"/>
  </g>
  <path data-px-label="sign" fill="#e41d1d" fill-rule="evenodd" stroke="none" d="M95.809,24.057C102.324,21.9951,109.5001,20.521,115.309,20.052C120.364,19.6441,258.178,19.257,421.563,19.193C584.9469,19.129,724.4471,19.4631,731.563,19.936C738.678,20.4089,747.2001,21.552,750.5,22.478C753.7999,23.4029,758.525,24.8871,761,25.776C763.475,26.6649,768.824,29.1251,772.888,31.243C776.9509,33.362,783.53,37.544,787.508,40.5379C791.4859,43.5318,797.6661,49.083,801.241,52.872C804.815,56.6619,809.088,61.7282,810.736,64.131C812.383,66.534,814.9651,70.943,816.473,73.929C817.981,76.915,819.8821,81.19,820.697,83.429C821.5119,85.668,823.051,90.425,824.118,94C825.3728,98.2039,826.22,104.738,826.517,112.5C826.7689,119.0999,827.1671,142.106,827.4,163.624L827.824,202.749L819.662,204.48C815.173,205.4319,806.5499,207.536,800.5,209.156C794.4501,210.776,784.325,213.827,778,215.936C771.675,218.0449,760.898,222.1131,754.05,224.975C747.2031,227.8378,737.528,232.2211,732.55,234.715C727.5731,237.2089,718.7749,241.9571,713,245.266C707.2251,248.5749,696.875,255.106,690,259.778C683.125,264.451,672.325,272.441,666,277.535C659.675,282.6279,650.0959,290.945,644.714,296.017C639.332,301.089,634.2688,306.513,633.464,308.07C632.659,309.627,632.002,313.2861,632.004,316.2C632.0059,319.723,632.674,322.5931,633.995,324.759C635.0879,326.552,637.448,328.913,639.241,330.0059C641.033,331.0999,644.006,332.279,645.846,332.6259C647.687,332.9738,651.0511,332.702,653.322,332.022C656.1299,331.1801,659.8591,328.4718,664.976,323.559C669.114,319.585,675.901,313.4069,680.058,309.83C684.215,306.2531,691.8651,300.1339,697.058,296.232C702.2509,292.33,712.2601,285.531,719.3,281.123C726.34,276.7141,737.3651,270.428,743.8,267.154C750.2349,263.8791,760.27,259.168,766.101,256.683C771.931,254.1991,782.9561,250.0959,790.601,247.566C798.245,245.0361,809.675,241.708,816,240.17L827.5,237.373L828,219.937L828.5,202.5L843.5,200.22C855.0439,198.4661,864.8401,197.8019,886.019,197.338C903.9379,196.945,918.2421,197.147,927.019,197.916C934.4339,198.565,946.0891,199.9891,952.92,201.078C959.751,202.168,970.5511,204.22,976.92,205.637C983.289,207.054,995.025,210.2271,1003,212.688C1010.975,215.149,1023.8,219.6551,1031.5,222.702C1039.2,225.7489,1051.6841,231.3381,1059.242,235.123C1066.8009,238.909,1077.8261,244.884,1083.742,248.402C1089.659,251.92,1099.3031,258.1661,1105.173,262.282C1111.0419,266.398,1119.5921,272.7491,1124.173,276.396C1128.7529,280.0429,1137.722,287.8582,1144.103,293.763C1150.4849,299.668,1156.4481,305.6941,1157.353,307.154C1158.4469,308.918,1159,312.0221,1159,316.401C1159,322.5549,1158.7619,323.257,1155.434,326.9409C1153.473,329.1119,1150.289,331.41,1148.359,332.047C1146.3011,332.7258,1142.989,332.9249,1140.349,332.5299C1136.6141,331.9701,1134.488,330.6319,1127.865,324.677C1123.475,320.73,1116.6469,314.6419,1112.691,311.148C1108.7361,307.655,1100.5499,301.07,1094.5,296.515C1088.4501,291.96,1079.189,285.5209,1073.92,282.206C1068.6501,278.89,1059.4249,273.541,1053.42,270.318C1047.414,267.0951,1037.325,262.139,1031,259.306C1024.675,256.472,1013.8049,252.107,1006.845,249.606C999.885,247.1041,987.96,243.4469,980.345,241.478C972.73,239.509,960.2,236.8149,952.5,235.49C944.8,234.166,933.325,232.6149,927,232.045C920.675,231.4741,906.5,231.006,895.5,231.004C884.5,231.003,870.5499,231.4651,864.5,232.032C858.4501,232.5989,847.875,233.9921,841,235.128C834.125,236.2639,828.398,237.289,828.274,237.406C828.15,237.5229,828.0049,245.314,827.951,254.719L827.854,271.82L820.677,273.559C816.73,274.5149,807.8239,277.2331,800.8869,279.597C793.95,281.962,784.2749,285.549,779.3869,287.57C774.499,289.5898,766.225,293.3961,761,296.026C755.775,298.6559,746.5499,303.8191,740.5,307.5C734.4501,311.18,724.969,317.4921,719.432,321.527C713.894,325.562,703.6979,333.838,696.772,339.9169C689.847,345.9969,683.2909,352.4401,682.2039,354.236C681.117,356.031,679.907,358.5571,679.515,359.849C679.1231,361.141,679.1011,364.19,679.467,366.625C679.945,369.8129,681.162,372.1361,683.815,374.923C686.2009,377.4279,689.073,379.215,691.96,379.991C695.3519,380.903,697.3381,380.916,700.247,380.044C702.744,379.2961,707.97,375.3939,715.287,368.8159C721.4539,363.272,729.954,356.1,734.175,352.879C738.397,349.659,746.7221,343.8499,752.675,339.97C758.629,336.091,768.675,330.2859,775,327.071C781.325,323.855,791.675,319.189,798,316.7C804.325,314.2122,813.652,310.934,818.7279,309.416L827.955,306.657L828.2279,289.091L828.5,271.525L840,269.344C846.325,268.145,856.4501,266.577,862.5,265.861C868.5499,265.1441,883.4,264.5559,895.5,264.5539C907.6,264.552,922.4501,265.12,928.5,265.8159C934.5499,266.5118,944.1691,267.9701,949.876,269.056C955.5829,270.141,964.622,272.137,969.962,273.49C975.302,274.8439,983.6831,277.265,988.586,278.869C993.4889,280.4739,1001.775,283.4631,1007,285.51C1012.225,287.558,1023.1762,292.6291,1031.335,296.779C1039.4949,300.9289,1052.095,308.2211,1059.335,312.983C1066.5759,317.7449,1077,325.2431,1082.5,329.645C1088,334.047,1096.2371,341.173,1100.805,345.48C1105.372,349.7869,1109.76,354.568,1110.555,356.106C1111.3499,357.6429,1112,360.9701,1112,363.5C1112,366.0299,1111.348,369.3601,1110.551,370.901C1109.754,372.4419,1107.5569,375.06,1105.6679,376.718C1103.779,378.3769,1100.6129,380.0381,1098.632,380.409C1096.6511,380.781,1093.1939,380.5909,1090.951,379.987C1088.0562,379.207,1084.349,376.5379,1078.186,370.797C1073.4091,366.347,1065.45,359.4619,1060.5,355.499C1055.55,351.5351,1047.45,345.593,1042.5,342.293C1037.55,338.9941,1028.999,333.85,1023.497,330.863C1017.9961,327.8752,1008.734,323.3059,1002.915,320.709C997.0961,318.111,988.3218,314.622,983.417,312.955C978.5131,311.287,970.6749,308.853,966,307.546C961.3251,306.2381,953,304.252,947.5,303.133C942,302.013,930.5249,300.3439,922,299.423C910.709,298.2041,901.748,297.8951,889,298.287C879.375,298.582,866.325,299.548,860,300.432C853.675,301.3159,844,303.0431,838.5,304.27L828.5,306.5L828.217,324L827.934,341.5L815.726,345.928C809.012,348.363,798.115,353.0931,791.51,356.438C784.9041,359.784,775,365.478,769.5,369.093C764,372.7069,755.9859,378.466,751.691,381.891C747.396,385.3159,740.5569,391.2761,736.493,395.137C731.884,399.5149,728.6639,403.488,727.9349,405.696C727.292,407.6439,726.986,411.1831,727.254,413.561C727.5739,416.4049,728.842,419.275,730.955,421.943C733.301,424.906,733.748,426,732.611,426C731.7551,426,727.0589,428.0571,722.176,430.572C717.293,433.0859,709.9759,437.674,705.917,440.767C701.8571,443.86,696.575,448.4401,694.179,450.945C691.7831,453.4499,687.9069,457.9751,685.565,461C683.223,464.0249,679.908,469.0271,678.198,472.116C676.4881,475.2049,669.894,486.3691,663.545,496.926C657.1951,507.483,652,516.31,652,516.542C652,516.7749,650.2319,519.853,648.071,523.384C645.91,526.9139,638.642,539.1841,631.92,550.651C625.1971,562.118,618.977,572.498,618.098,573.719C616.5401,575.8819,615.9969,575.938,596.36,575.969C582.4261,575.9898,573.69,576.4801,568.008,577.558C563.491,578.4149,557.3429,580.2001,554.345,581.526C551.348,582.851,546.7429,585.634,544.113,587.7089C541.4821,589.7849,537.806,593.385,535.943,595.711C534.0811,598.037,531.6119,601.641,530.457,603.72C529.3011,605.7989,527.5269,609.9751,526.514,613C525.1911,616.951,524.672,621.457,524.672,629C524.672,636.594,525.1861,641.0221,526.53,645C527.553,648.0249,529.929,653.0881,531.812,656.251C533.695,659.4139,537.953,664.518,541.275,667.594C544.816,670.8719,550.2481,674.555,554.407,676.496C558.3079,678.317,562.51,680.105,563.744,680.469C564.9779,680.8329,566.6661,681.809,567.494,682.6369C568.7609,683.9038,568.9999,688.447,568.999,711.321C568.9981,726.2699,568.7,757.7381,568.336,781.25L567.674,824L340.403,824C140.082,824,112.263,823.8179,105.815,822.467C101.7921,821.6241,95.3489,819.85,91.498,818.525C87.6471,817.199,81.7969,814.6779,78.498,812.921C75.199,811.165,69.7659,807.7799,66.424,805.4C63.083,803.0201,57.2939,797.951,53.561,794.135C49.8281,790.318,44.7999,784.278,42.388,780.712C39.977,777.146,36.201,770.5789,33.998,766.118C31.7961,761.657,28.757,754.0679,27.247,749.254L24.5,740.5L24.242,426.666C23.991,121.443,24.037,112.5809,25.888,103.666C26.9359,98.6251,28.987,91.1819,30.446,87.126C31.9059,83.07,34.629,76.715,36.499,73.002C38.3679,69.2901,42.248,63.159,45.12,59.376C47.992,55.5941,52.394,50.5328,54.903,48.13C57.412,45.726,61.998,41.81,65.0939,39.427C68.1909,37.0451,74.0491,33.3459,78.112,31.208C82.176,29.0701,90.139,25.852,95.809,24.057zM351,337.922C351,290.261,351.2691,277.0549,352.25,276.647C352.9379,276.3621,373.9751,276.2491,399,276.397C424.0249,276.545,446.275,276.9871,448.443,277.378C450.612,277.7699,453.9871,278.781,455.943,279.6259C457.8999,280.4699,462.6411,282.5881,466.48,284.331C471.5149,286.6159,475.4371,289.452,480.55,294.5C485.3939,299.2839,488.7432,303.7161,491.126,308.5C493.044,312.35,495.4342,318.141,496.437,321.369C497.9309,326.1769,498.17,329.429,497.76,339.369C497.3871,348.3949,496.72,352.893,495.152,356.944C493.9931,359.9379,491.396,365.113,489.38,368.444C487.364,371.7749,483.1569,377.021,480.029,380.1019C476.9021,383.1819,471.6779,387.265,468.422,389.173C465.165,391.0819,460.475,393.3441,458,394.2C455.525,395.055,451.25,396.3011,448.5,396.967C445.75,397.634,439.225,398.575,434,399.059C428.775,399.5419,407.9619,399.6539,387.75,399.308L351,398.677L351,337.922zM841.98,337.866C846.666,336.7611,855.9,335.029,862.5,334.017C870.916,332.727,880.4741,332.1519,894.5,332.093C909.4439,332.03,917.8261,332.4991,927.656,333.945C934.892,335.009,944.776,336.822,949.621,337.973C954.466,339.1229,964.051,341.9341,970.921,344.218C977.791,346.5029,989.957,351.6241,997.956,355.598C1005.955,359.5719,1017.2251,365.978,1023,369.833C1028.775,373.6889,1036.6501,379.375,1040.5,382.47C1044.3499,385.5639,1050.9981,391.5261,1055.273,395.717C1059.549,399.909,1063.3151,404.408,1063.643,405.7149C1063.9719,407.0229,1064.036,410.5571,1063.786,413.568C1063.4281,417.8859,1062.7149,419.693,1060.416,422.111C1058.812,423.798,1056.285,425.813,1054.8,426.589C1053.3141,427.365,1050.0219,428,1047.484,428C1044.9451,428,1041.8859,427.4899,1040.684,426.867C1039.483,426.243,1035.125,422.725,1031,419.048C1026.875,415.371,1020.7999,410.176,1017.5,407.503C1014.2001,404.83,1007.8319,400.2748,1003.349,397.38C998.866,394.4852,990.3159,389.672,984.349,386.685C978.382,383.6972,969.103,379.6099,963.728,377.6019C958.353,375.5941,949.353,372.848,943.728,371.5C938.103,370.152,928.89,368.363,923.257,367.525C917.0451,366.6001,906.024,366,895.257,366C882.3531,366,874.2049,366.5381,865.445,367.967C858.8151,369.0489,849.3649,371.0261,844.445,372.361C839.525,373.696,834.2329,375.286,832.6849,375.894C831.1369,376.502,829.4489,377,828.9349,377C828.391,377,828,369.6779,828,359.475L828,341.95L830.73,340.913C832.2308,340.3421,837.294,338.971,841.98,337.866zM801.433,389.4049C805.2459,387.321,812.2211,383.9259,816.933,381.861C821.6449,379.7961,826.0721,378.0819,826.771,378.053C827.767,378.0111,827.9829,382.3771,827.771,398.25L827.5,418.5L794.838,418.764C770.9533,418.956,761.548,419.3651,759.838,420.284C758.5521,420.9749,755.62,422.808,753.322,424.356C751.0231,425.904,747.4229,427.3961,745.322,427.671C743.2201,427.945,740.1499,427.6499,738.5,427.015C735.7201,425.9441,735.641,425.781,737.415,424.787C738.469,424.1981,742.5191,422.887,746.415,421.875C750.312,420.863,754.683,420.0269,756.129,420.017C757.9239,420.005,761.7832,417.5009,768.289,412.124C773.5309,407.792,781.5731,401.7599,786.16,398.721C790.7469,395.6821,797.6201,391.4899,801.433,389.4049zM258.662,197.939C257.7861,198.815,257.5,254.1721,257.5,422.501C257.5,604.4329,257.741,646.1421,258.8,647.2C259.8199,648.2209,267.9871,648.493,296.8,648.468C316.985,648.4501,336.9881,648.0469,341.25,647.571L349,646.707L349.127,574.6029C349.196,534.946,349.39,497.6699,349.558,491.766C349.725,485.8621,350.133,480.595,350.463,480.061C350.8349,479.4581,367.284,479.081,393.838,479.066C417.3649,479.0531,441.9751,478.572,448.527,477.998C455.0789,477.4231,462.253,476.708,464.47,476.407C466.6859,476.1071,472.775,475.201,478,474.393C483.225,473.5862,489.9751,472.4359,493,471.838C496.0249,471.24,502.325,469.4019,507,467.754C511.675,466.105,519.4791,462.719,524.342,460.229C529.205,457.739,535.8601,453.732,539.131,451.325C542.4008,448.917,548.678,443.507,553.0789,439.303C557.4799,435.0981,563.631,428.2689,566.748,424.127C569.8648,419.9851,574.76,411.963,577.624,406.299C580.489,400.6351,583.804,392.7388,584.991,388.7509C586.178,384.763,587.5381,380.375,588.015,379C588.4909,377.625,589.695,372.4499,590.69,367.5C592.1229,360.373,592.5,353.713,592.5,335.5C592.5,317.344,592.1149,310.499,590.671,303C589.665,297.775,588.166,291.25,587.34,288.5C586.515,285.75,584.6749,280.5749,583.253,277C581.83,273.4251,579.3288,268.0249,577.695,265C576.06,261.9751,572.6569,256.35,570.1319,252.5C567.606,248.6501,561.0309,240.99,555.52,235.477C550.0091,229.964,542.2469,223.2989,538.271,220.664C534.2961,218.0301,527.546,214.0929,523.271,211.916C518.997,209.7391,511.225,206.6218,506,204.99C500.775,203.3582,494.0249,201.548,491,200.968C487.9751,200.3891,478.75,199.0389,470.5,197.97C462.25,196.9001,448.5249,195.7479,440,195.409C431.4751,195.0711,411.225,194.727,395,194.647C378.775,194.5661,363.925,194.611,362,194.746C360.075,194.8819,336.298,195.3941,309.162,195.885C274.0751,196.519,259.488,197.1121,258.662,197.939z"/>
</svg>